<svg width="217" height="977" viewBox="0 0 217 977" fill="none" xmlns="http://www.w3.org/2000/svg">
<circle cx="208.5" cy="968.5" r="8.5" fill="#632A43"/>
<circle cx="127.5" cy="248.5" r="8.5" fill="#632A43"/>
<circle cx="208.5" cy="248.5" r="8.5" fill="#632A43"/>
<circle cx="168.5" cy="208.5" r="8.5" fill="#632A43"/>
<circle cx="208.5" cy="168.5" r="8.5" fill="#632A43"/>
<circle cx="88.5" cy="208.5" r="8.5" fill="#632A43"/>
<circle cx="48.5" cy="168.5" r="8.5" fill="#632A43"/>
<circle cx="9.5" cy="129.5" r="8.5" fill="#632A43"/>
<circle cx="88.5" cy="127.5" r="8.5" fill="#632A43"/>
<circle cx="127.5" cy="168.5" r="8.5" fill="#632A43"/>
<circle cx="168.5" cy="127.5" r="8.5" fill="#632A43"/>
<circle cx="127.5" cy="87.5" r="8.5" fill="#632A43"/>
<circle cx="48.5" cy="87.5" r="8.5" fill="#632A43"/>
<circle cx="11.5" cy="48.5" r="8.5" fill="#632A43"/>
<circle cx="88.5" cy="48.5" r="8.5" fill="#632A43"/>
<circle cx="48.5" cy="8.5" r="8.5" fill="#632A43"/>
<circle cx="127.5" cy="8.5" r="8.5" fill="#632A43"/>
<circle cx="208.5" cy="8.5" r="8.5" fill="#632A43"/>
<circle cx="168.5" cy="48.5" r="8.5" fill="#632A43"/>
<circle cx="208.5" cy="88.5" r="8.5" fill="#632A43"/>
<circle cx="128.5" cy="568.5" r="8.5" fill="#632A43"/>
<circle cx="168.5" cy="608.5" r="8.5" fill="#632A43"/>
<circle cx="168.5" cy="688.5" r="8.5" fill="#632A43"/>
<circle cx="128.5" cy="729.5" r="8.5" fill="#632A43"/>
<circle cx="208.5" cy="728.5" r="8.5" fill="#632A43"/>
<circle cx="208.5" cy="648.5" r="8.5" fill="#632A43"/>
<circle cx="208.5" cy="568.5" r="8.5" fill="#632A43"/>
<circle cx="168.5" cy="529.5" r="8.5" fill="#632A43"/>
<circle cx="88.5" cy="529.5" r="8.5" fill="#632A43"/>
<circle cx="48.5" cy="488.5" r="8.5" fill="#632A43"/>
<circle cx="127.5" cy="488.5" r="8.5" fill="#632A43"/>
<circle cx="88.5" cy="449.5" r="8.5" fill="#632A43"/>
<circle cx="49.5" cy="407.5" r="8.5" fill="#632A43"/>
<circle cx="10.5" cy="449.5" r="8.5" fill="#632A43"/>
<circle cx="8.5" cy="369.5" r="8.5" fill="#632A43"/>
<circle cx="48.5" cy="328.5" r="8.5" fill="#632A43"/>
<circle cx="88.5" cy="368.5" r="8.5" fill="#632A43"/>
<circle cx="127.5" cy="408.5" r="8.5" fill="#632A43"/>
<circle cx="47.5" cy="968.5" r="8.5" fill="#632A43"/>
<circle cx="128.5" cy="968.5" r="8.5" fill="#632A43"/>
<circle cx="88.5" cy="928.5" r="8.5" fill="#632A43"/>
<circle cx="47.5" cy="888.5" r="8.5" fill="#632A43"/>
<circle cx="9.5" cy="849.5" r="8.5" fill="#632A43"/>
<circle cx="88.5" cy="769.5" r="8.5" fill="#632A43"/>
<circle cx="11.5" cy="769.5" r="8.5" fill="#632A43"/>
<circle cx="48.5" cy="729.5" r="8.5" fill="#632A43"/>
<circle cx="88.5" cy="848.5" r="8.5" fill="#632A43"/>
<circle cx="128.5" cy="888.5" r="8.5" fill="#632A43"/>
<circle cx="168.5" cy="848.5" r="8.5" fill="#632A43"/>
<circle cx="168.5" cy="928.5" r="8.5" fill="#632A43"/>
<circle cx="128.5" cy="808.5" r="8.5" fill="#632A43"/>
<circle cx="47.5" cy="808.5" r="8.5" fill="#632A43"/>
<circle cx="208.5" cy="888.5" r="8.5" fill="#632A43"/>
<circle cx="208.5" cy="808.5" r="8.5" fill="#632A43"/>
<circle cx="168.5" cy="769.5" r="8.5" fill="#632A43"/>
<circle cx="9.5" cy="928.5" r="8.5" fill="#632A43"/>
<circle cx="168.5" cy="449.5" r="8.5" fill="#632A43"/>
<circle cx="208.5" cy="488.5" r="8.5" fill="#632A43"/>
<circle cx="208.5" cy="409.5" r="8.5" fill="#632A43"/>
<circle cx="10.5" cy="529.5" r="8.5" fill="#632A43"/>
<circle cx="9.5" cy="688.5" r="8.5" fill="#632A43"/>
<circle cx="168.5" cy="368.5" r="8.5" fill="#632A43"/>
<circle cx="208.5" cy="328.5" r="8.5" fill="#632A43"/>
<circle cx="127.5" cy="328.5" r="8.5" fill="#632A43"/>
<circle cx="168.5" cy="289.5" r="8.5" fill="#632A43"/>
<circle cx="88.5" cy="289.5" r="8.5" fill="#632A43"/>
<circle cx="48.5" cy="249.5" r="8.5" fill="#632A43"/>
<circle cx="12.5" cy="289.5" r="8.5" fill="#632A43"/>
<circle cx="9.5" cy="209.5" r="8.5" fill="#632A43"/>
<circle cx="48.5" cy="568.5" r="8.5" fill="#632A43"/>
<circle cx="88.5" cy="688.5" r="8.5" fill="#632A43"/>
<circle cx="128.5" cy="648.5" r="8.5" fill="#632A43"/>
<circle cx="88.5" cy="608.5" r="8.5" fill="#632A43"/>
<circle cx="48.5" cy="649.5" r="8.5" fill="#632A43"/>
<circle cx="10.5" cy="608.5" r="8.5" fill="#632A43"/>
</svg>
